<?xml version="1.0" encoding="utf-8"?>
<svg version="1.1" xmlns="http://www.w3.org/2000/svg" xmlns:xlink="http://www.w3.org/1999/xlink" x="0px" y="0px"
	 viewBox="0 0 500 500" style="enable-background:new 0 0 500 500;" xml:space="preserve">
<g id="OBJECTS">
	<g>
		<path style="fill:#0F5B64;" d="M437.324,446.937H62.676c-4.772,0-8.676-3.904-8.676-8.676v0c0-4.772,3.904-8.676,8.676-8.676
			h374.648c4.772,0,8.676,3.904,8.676,8.676v0C446,443.033,442.096,446.937,437.324,446.937z"/>
		<path style="fill:#09353B;" d="M437.324,436.521H62.676c-3.54,0-6.598,2.151-7.944,5.208c1.345,3.057,4.404,5.208,7.944,5.208
			h374.648c3.54,0,6.598-2.151,7.944-5.208C443.922,438.672,440.864,436.521,437.324,436.521z"/>
		<path style="fill:#0F5B64;" d="M429.161,444.8H70.896V67.488c0-7.934,6.492-14.426,14.426-14.426h329.414
			c7.934,0,14.426,6.492,14.426,14.426V444.8z"/>
		<path style="fill:#FFFFFF;" d="M426.389,444.8H73.668V70.316c0-7.811,6.391-14.202,14.203-14.202h324.316
			c7.811,0,14.203,6.391,14.203,14.202V444.8z"/>
		<path style="fill:#EEF9FA;" d="M249.569,331.638c-64.912,0-125.327-12.692-175.9-40.105V444.8h352.721V291.03
			C375.629,318.75,314.875,331.638,249.569,331.638z"/>
		<path style="fill:#DFEEF0;" d="M249.399,379.532c-40.953,0-91.603,0.237-175.731-20.539V444.8h352.721v-86.58
			C341.346,379.622,290.501,379.532,249.399,379.532z"/>
		<g>
			<path style="fill:#BCD8DB;" d="M249.355,443.482c-61.451,0-159.975-3.891-175.687-7.405v8.723h352.721v-8.78
				C390.16,442.561,311.308,443.482,249.355,443.482z"/>
		</g>
		<g>
			
				<text transform="matrix(1 0 0 1 134.5303 315.8545)" style="fill:#BCD8DB; font-family:'Montserrat-Black'; font-size:59.557px; letter-spacing:1;">ERROR</text>
		</g>
		<path style="fill:#0F5B64;" d="M429.161,81.665V67.488c0-7.934-6.492-14.426-14.426-14.426H85.322
			c-7.934,0-14.426,6.492-14.426,14.426v14.177H429.161z"/>
		
			<path style="fill:#09353B;stroke:#09353B;stroke-width:3.2059;stroke-linecap:round;stroke-linejoin:round;stroke-miterlimit:10;" d="
			M364.322,75.571h-9.501c-1.901,0-3.456-1.555-3.456-3.456v-9.501c0-1.901,1.555-3.456,3.456-3.456h9.501
			c1.901,0,3.456,1.555,3.456,3.456v9.501C367.778,74.015,366.223,75.571,364.322,75.571z"/>
		
			<path style="fill:#09353B;stroke:#09353B;stroke-width:3.2059;stroke-linecap:round;stroke-linejoin:round;stroke-miterlimit:10;" d="
			M414.025,75.571h-9.501c-1.901,0-3.456-1.555-3.456-3.456v-9.501c0-1.901,1.555-3.456,3.456-3.456h9.501
			c1.901,0,3.456,1.555,3.456,3.456v9.501C417.481,74.015,415.926,75.571,414.025,75.571z"/>
		
			<path style="fill:#09353B;stroke:#09353B;stroke-width:3.2059;stroke-linecap:round;stroke-linejoin:round;stroke-miterlimit:10;" d="
			M389.174,75.571h-9.501c-1.901,0-3.456-1.555-3.456-3.456v-9.501c0-1.901,1.555-3.456,3.456-3.456h9.501
			c1.901,0,3.456,1.555,3.456,3.456v9.501C392.63,74.015,391.074,75.571,389.174,75.571z"/>
		<path style="fill:#8ACC57;" d="M364.322,74.597h-9.501c-1.901,0-3.456-1.555-3.456-3.456V61.64c0-1.901,1.555-3.456,3.456-3.456
			h9.501c1.901,0,3.456,1.555,3.456,3.456v9.501C367.778,73.042,366.223,74.597,364.322,74.597z"/>
		<g>
			<path style="fill:#FF4747;" d="M414.025,74.597h-9.501c-1.901,0-3.456-1.555-3.456-3.456V61.64c0-1.901,1.555-3.456,3.456-3.456
				h9.501c1.901,0,3.456,1.555,3.456,3.456v9.501C417.481,73.042,415.926,74.597,414.025,74.597z"/>
			<path style="fill:#7A2222;" d="M405.031,70.633L405.031,70.633c-0.322-0.322-0.322-0.848,0-1.169l7.316-7.316
				c0.322-0.322,0.848-0.322,1.169,0l0,0c0.322,0.322,0.322,0.848,0,1.169l-7.316,7.316
				C405.879,70.955,405.353,70.955,405.031,70.633z"/>
			<path style="fill:#7A2222;" d="M405.031,62.148L405.031,62.148c0.322-0.322,0.848-0.322,1.169,0l7.316,7.316
				c0.322,0.322,0.322,0.848,0,1.169l0,0c-0.322,0.322-0.848,0.322-1.169,0l-7.316-7.316
				C404.71,62.995,404.71,62.469,405.031,62.148z"/>
		</g>
		<g>
			<path style="fill:#FFBB00;" d="M389.174,74.597h-9.501c-1.901,0-3.456-1.555-3.456-3.456V61.64c0-1.901,1.555-3.456,3.456-3.456
				h9.501c1.901,0,3.456,1.555,3.456,3.456v9.501C392.63,73.042,391.074,74.597,389.174,74.597z"/>
			<path style="fill:#8A6500;" d="M380.119,68.433h8.608c0.57,0,1.037,0.466,1.037,1.037l0,0c0,0.57-0.466,1.037-1.037,1.037h-8.608
				c-0.57,0-1.037-0.466-1.037-1.037l0,0C379.083,68.899,379.549,68.433,380.119,68.433z"/>
		</g>
		<rect x="73.668" y="81.665" style="fill:#BCCCCF;" width="352.721" height="39.754"/>
		<polygon style="fill:#ABBABD;" points="322.185,115.413 80.815,115.413 83.023,89.201 321.243,89.201 		"/>
		<polygon style="fill:#ABBABD;" points="322.185,115.413 419.243,115.413 417.034,89.201 321.243,89.201 		"/>
		<g>
			<g>
				<rect x="83.023" y="89.201" style="fill:#FFFFFF;" width="238.22" height="24.681"/>
				<rect x="83.023" y="111.479" style="fill:#85A3A8;" width="238.22" height="2.404"/>
			</g>
			<g>
				
					<rect x="321.243" y="89.201" transform="matrix(-1 -1.224647e-16 1.224647e-16 -1 738.2768 203.0841)" style="fill:#6CC9CC;" width="95.791" height="24.681"/>
				
					<rect x="321.243" y="111.479" transform="matrix(-1 -1.224647e-16 1.224647e-16 -1 738.2768 225.3621)" style="fill:#38A7AB;" width="95.791" height="2.404"/>
				<text transform="matrix(1 0 0 1 352.2979 106.7217)" style="fill:#FFFFFF; font-family:'Comfortaa'; font-size:16.5664px;">SEARCH</text>
				<g>
					<path style="fill:#FFFFFF;" d="M333.784,93.514c-2.365,2.365-2.365,6.201,0,8.566c2.366,2.365,6.201,2.365,8.566,0
						c2.365-2.365,2.365-6.201,0-8.566C339.985,91.149,336.15,91.149,333.784,93.514z M341.505,101.236
						c-1.899,1.899-4.978,1.899-6.877,0c-1.899-1.899-1.899-4.978,0-6.877c1.899-1.899,4.978-1.899,6.877,0
						C343.404,96.258,343.404,99.337,341.505,101.236z"/>
					<path style="fill:#FFFFFF;" d="M342.697,102.427c-0.6,0.6-1.295,1.046-2.036,1.342l0.761,0.761
						c0.929,0.929,2.449,0.929,3.378,0l0,0c0.929-0.929,0.929-2.449,0-3.378l-0.761-0.761
						C343.743,101.132,343.297,101.827,342.697,102.427z"/>
					<path style="fill:#FFFFFF;" d="M345.111,104.841L345.111,104.841c-0.309,0.309-0.685,0.505-1.081,0.609l3.884,3.884
						c0.465,0.465,1.225,0.465,1.689,0l0,0c0.465-0.465,0.465-1.225,0-1.689l-3.884-3.885
						C345.616,104.156,345.419,104.532,345.111,104.841z"/>
				</g>
			</g>
		</g>
		<path style="fill:#BCD8DB;" d="M409.028,267.142H91.029c-4.403,0-8.006-3.603-8.006-8.006V138.571
			c0-4.403,3.603-8.006,8.006-8.006h317.999c4.403,0,8.006,3.603,8.006,8.006v120.566
			C417.034,263.54,413.431,267.142,409.028,267.142z"/>
		<path style="fill:#A5C6C9;" d="M409.028,130.565H91.029c-4.403,0-8.006,3.602-8.006,8.006v120.566
			c0,4.403,3.603,8.006,8.006,8.006h317.999c4.403,0,8.006-3.603,8.006-8.006V138.571
			C417.034,134.168,413.431,130.565,409.028,130.565z M413.8,256.174c0,4.309-3.525,7.834-7.834,7.834H94.091
			c-4.309,0-7.834-3.525-7.834-7.834V138.466c0-4.309,3.525-7.834,7.834-7.834h311.875c4.309,0,7.834,3.525,7.834,7.834V256.174z"/>
		<rect x="84.948" y="342.205" style="fill:#FFFFFF;" width="258.13" height="74.654"/>
		<path style="fill:#EEF9FA;" d="M343.079,416.859v-74.654h-44.641c-13.645,11.857-22.319,29.304-22.319,48.691v25.964H343.079z"/>
		<rect x="91.786" y="350.517" style="fill:none;" width="167.463" height="60.284"/>
		<text transform="matrix(1 0 0 1 91.7856 358.8623)"><tspan x="0" y="0" style="fill:#0F5B64; font-family:'Comfortaa-Bold'; font-size:10.6863px;">Lorem ipsum dolor sit</tspan><tspan x="128.435" y="0" style="fill:#0F5B64; font-family:'Comfortaa'; font-size:10.6863px;"> amet, </tspan><tspan x="0" y="12.823" style="fill:#0F5B64; font-family:'Comfortaa'; font-size:10.6863px;">consectetuer adipiscing elit, sed </tspan><tspan x="0" y="25.647" style="fill:#0F5B64; font-family:'Comfortaa'; font-size:10.6863px;">diam nonummy nibh euismod. </tspan><tspan x="0" y="38.471" style="fill:#0F5B64; font-family:'Comfortaa'; font-size:10.6863px;"> </tspan><tspan x="0" y="51.294" style="fill:#0F5B64; font-family:'Comfortaa-Bold'; font-size:10.6863px;">Consectetuer</tspan><tspan x="79.196" y="51.294" style="fill:#0F5B64; font-family:'Comfortaa'; font-size:10.6863px;"> adipiscing elit.</tspan></text>
		<g>
			<path style="fill:#0F5B64;" d="M411.533,444.8v-54.607c0-35.498-29.044-64.542-64.542-64.542h0
				c-35.498,0-64.542,29.044-64.542,64.542V444.8H411.533z"/>
			<g>
				<path style="fill:#0B454D;" d="M331.977,402.149c1.067-1.066,1.654-2.487,1.654-4.001c0-1.513-0.587-2.934-1.654-4l-8.22-8.22
					l8.22-8.219c1.067-1.066,1.654-2.487,1.654-4.001c0-1.513-0.587-2.934-1.654-4.001c-2.206-2.204-5.795-2.205-8.001,0.001
					l-8.22,8.22l-8.22-8.22c-2.206-2.204-5.795-2.204-8.001,0l-0.001,0.001c-1.066,1.066-1.653,2.487-1.653,4
					c0,1.514,0.587,2.935,1.654,4l8.22,8.22l-8.22,8.22c-1.066,1.066-1.653,2.487-1.653,4c0,1.513,0.587,2.934,1.653,4c0,0,0,0,0,0
					l0,0.001c1.066,1.066,2.487,1.654,4,1.654c1.514,0,2.934-0.588,4.001-1.655l8.22-8.22l8.219,8.22
					c1.067,1.067,2.488,1.655,4.001,1.655C329.49,403.803,330.911,403.216,331.977,402.149z"/>
				<path style="fill:#0B454D;" d="M385.183,385.928l9.089-9.089c1.18-1.179,1.829-2.75,1.829-4.424
					c0-1.673-0.649-3.244-1.829-4.424c-2.439-2.438-6.408-2.438-8.848,0.001l-9.089,9.089l-9.09-9.09
					c-2.439-2.438-6.408-2.438-8.847,0l-0.001,0.001c-1.179,1.179-1.828,2.75-1.828,4.424c0,1.674,0.65,3.245,1.829,4.424l9.09,9.09
					l-9.09,9.09c-1.179,1.179-1.828,2.75-1.828,4.424c0,1.673,0.65,3.245,1.828,4.424h0c0,0.001,0,0.001,0,0.001
					c1.179,1.179,2.75,1.829,4.424,1.829c1.674,0,3.245-0.65,4.424-1.83l9.089-9.089l9.089,9.089c1.18,1.18,2.751,1.83,4.424,1.83
					c1.674,0,3.245-0.65,4.424-1.829c1.18-1.179,1.829-2.75,1.829-4.424c0-1.673-0.649-3.244-1.829-4.424L385.183,385.928z"/>
				<path style="fill:#0B454D;" d="M344.319,409.021c-9.983,0-18.104,8.122-18.104,18.105c0,1.951,1.582,3.533,3.533,3.533
					c1.951,0,3.533-1.582,3.533-3.533c0-6.087,4.952-11.039,11.038-11.039c6.087,0,11.039,4.952,11.039,11.039
					c0,1.951,1.582,3.533,3.533,3.533c1.951,0,3.533-1.582,3.533-3.533C362.423,417.142,354.302,409.021,344.319,409.021z"/>
			</g>
			<path style="fill:#116670;" d="M346.991,345.143c19.397,0,35.756,1.155,40.915-4.768c-11.157-9.189-25.42-14.724-40.915-14.724h0
				c-15.495,0-29.759,5.536-40.915,14.724C311.235,346.298,327.594,345.143,346.991,345.143z"/>
			<path style="fill:#0B454D;" d="M282.449,398.41v46.39h129.084v-46.39c-5.146,26.553-28.474,46.186-56.046,46.186h-16.992
				C310.923,444.596,287.595,424.963,282.449,398.41z"/>
			<g>
				<path style="fill:#FFFFFF;" d="M331.977,399.368c1.067-1.066,1.654-2.487,1.654-4.001c0-1.513-0.587-2.934-1.654-4l-8.22-8.22
					l8.22-8.219c1.067-1.066,1.654-2.487,1.654-4.001c0-1.513-0.587-2.934-1.654-4.001c-2.206-2.204-5.795-2.205-8.001,0.001
					l-8.22,8.22l-8.22-8.22c-2.206-2.204-5.795-2.204-8.001,0l-0.001,0.001c-1.066,1.066-1.653,2.487-1.653,4
					c0,1.514,0.587,2.935,1.654,4l8.22,8.22l-8.22,8.22c-1.066,1.066-1.653,2.487-1.653,4c0,1.513,0.587,2.934,1.653,4c0,0,0,0,0,0
					l0,0.001c1.066,1.066,2.487,1.654,4,1.654c1.514,0,2.934-0.588,4.001-1.655l8.22-8.22l8.219,8.22
					c1.067,1.067,2.488,1.655,4.001,1.655C329.49,401.022,330.911,400.435,331.977,399.368z"/>
				<path style="fill:#FFFFFF;" d="M385.183,383.147l9.089-9.089c1.18-1.179,1.829-2.75,1.829-4.424
					c0-1.673-0.649-3.245-1.829-4.424c-2.439-2.438-6.408-2.438-8.848,0.001l-9.089,9.089l-9.09-9.09
					c-2.439-2.438-6.408-2.438-8.847,0l-0.001,0.001c-1.179,1.179-1.828,2.75-1.828,4.424c0,1.674,0.65,3.245,1.829,4.424l9.09,9.09
					l-9.09,9.09c-1.179,1.179-1.828,2.75-1.828,4.424c0,1.673,0.65,3.244,1.828,4.424h0c0,0.001,0,0.001,0,0.001
					c1.179,1.179,2.75,1.829,4.424,1.829c1.674,0,3.245-0.65,4.424-1.83l9.089-9.089l9.089,9.089c1.18,1.18,2.751,1.83,4.424,1.83
					c1.674,0,3.245-0.65,4.424-1.829c1.18-1.179,1.829-2.75,1.829-4.424c0-1.673-0.649-3.244-1.829-4.424L385.183,383.147z"/>
				<path style="fill:#FFFFFF;" d="M344.319,406.24c-9.983,0-18.104,8.122-18.104,18.105c0,1.951,1.582,3.533,3.533,3.533
					c1.951,0,3.533-1.582,3.533-3.533c0-6.087,4.952-11.039,11.038-11.039c6.087,0,11.039,4.952,11.039,11.039
					c0,1.951,1.582,3.533,3.533,3.533c1.951,0,3.533-1.582,3.533-3.533C362.423,414.361,354.302,406.24,344.319,406.24z"/>
			</g>
			<path style="fill:#13727D;" d="M346.991,334.435c11.816,0,21.396,0.497,21.396-2.787c0-0.857-0.665-1.886-1.838-2.94
				c-6.176-1.979-12.746-3.057-19.558-3.057h0c-6.811,0-13.381,1.078-19.558,3.057c-1.173,1.054-1.838,2.083-1.838,2.94
				C325.595,334.931,335.175,334.435,346.991,334.435z"/>
		</g>
		<g>
			<polygon style="fill:#FFFFFF;" points="193.282,185.746 164.553,185.746 164.553,204.128 155.294,204.128 178.033,149.527 
				148.35,149.527 123.841,206.17 123.841,226.594 164.553,226.594 164.553,245.113 193.282,245.113 193.282,226.594 
				204.176,226.594 204.176,204.128 193.282,204.128 			"/>
			<polygon style="fill:#FFFFFF;" points="365.324,204.128 365.324,185.746 336.593,185.746 336.593,204.128 327.334,204.128 
				350.073,149.527 320.39,149.527 295.882,206.171 295.882,226.595 336.593,226.595 336.593,245.112 365.324,245.112 
				365.324,226.595 376.216,226.595 376.216,204.128 			"/>
			<path style="fill:#FFFFFF;" d="M249.636,148.71c-25.053,0-38.669,17.292-38.669,48.61c0,31.317,13.616,48.61,38.669,48.61
				c24.782,0,38.533-17.294,38.533-48.61C288.17,166.003,274.418,148.71,249.636,148.71z M249.636,224.688
				c-6.807,0-8.85-7.353-8.85-27.368c0-20.152,2.043-27.368,8.85-27.368c6.672,0,8.714,7.216,8.714,27.368
				C258.351,217.336,256.308,224.688,249.636,224.688z"/>
		</g>
	</g>
</g>
</svg>
